<?xml version="1.0" standalone="no"?>
<!DOCTYPE svg PUBLIC "-//W3C//DTD SVG 20010904//EN"
 "http://www.w3.org/TR/2001/REC-SVG-20010904/DTD/svg10.dtd">
<svg version="1.0" xmlns="http://www.w3.org/2000/svg"
 width="512.000000pt" height="512.000000pt" viewBox="0 0 512.000000 512.000000"
 preserveAspectRatio="xMidYMid meet">
<metadata>
Created by potrace 1.11, written by Peter Selinger 2001-2013
</metadata>
<g transform="translate(0.000000,512.000000) scale(0.100000,-0.100000)"
fill="#000000" stroke="none">
<path d="M0 2560 l0 -2560 2560 0 2560 0 0 2560 0 2560 -2560 0 -2560 0 0
-2560z m4061 1568 c-61 -117 -153 -294 -204 -393 l-95 -180 -467 -8 c-257 -4
-469 -6 -471 -4 -2 2 82 164 188 360 174 326 193 357 217 358 20 0 866 71 929
78 7 0 -36 -93 -97 -211z m-1583 -70 l3 -138 -170 0 -170 0 -3 -1187 -3 -1188
-27 -95 c-31 -112 -62 -186 -113 -266 -81 -126 -231 -255 -386 -332 -85 -42
-220 -92 -248 -92 -10 0 -42 45 -82 117 l-66 118 61 34 c132 73 170 124 211
287 40 155 45 316 45 1497 l0 1107 -160 0 -160 0 0 133 c0 74 3 137 7 140 3 4
288 6 632 5 l626 -3 3 -137z m1152 -1538 l0 -809 138 -3 137 -3 3 -137 3 -138
-581 0 -581 0 3 138 3 137 138 3 137 3 0 669 0 670 -125 0 -125 0 0 140 0 140
425 0 425 0 0 -810z"/>
<path d="M3090 3735 l0 -45 280 0 280 0 0 45 0 45 -280 0 -280 0 0 -45z"/>
</g>
</svg>
